<svg id="Group_4348" data-name="Group 4348" xmlns="http://www.w3.org/2000/svg" width="333" height="136.682" viewBox="0 0 333 136.682">
  <rect id="Rectangle_74" data-name="Rectangle 74" width="13.148" height="49.275" transform="translate(0 55.054)" fill="#004e92"/>
  <path id="Path_5" data-name="Path 5" d="M73.151,174.121h12.2l19.411,26.048V174.121h12.951V223.4H106.248L86.1,196.366V223.4H73.153V174.121Z" transform="translate(-50.022 -119.067)" fill="#004e92" fill-rule="evenodd"/>
  <path id="Path_6" data-name="Path 6" d="M232.85,174.121h14.637l10.719,31.186,10.722-31.186h14.351L264.133,223.75H252Z" transform="translate(-159.227 -119.067)" fill="#004e92" fill-rule="evenodd"/>
  <path id="Path_7" data-name="Path 7" d="M411.133,174.121h37.956v11.615H424.074V193.2h22.651v10.772H424.074v7.808H449.42V223.4H411.133Z" transform="translate(-281.14 -119.067)" fill="#004e92" fill-rule="evenodd"/>
  <path id="Path_8" data-name="Path 8" d="M579.315,197.77c4.451,0,7.01-2.252,7.01-5.839v-.142c0-3.871-2.7-5.839-7.073-5.839h-8.563v11.82ZM557.6,174.121H579.92c7.214,0,12.206,1.97,15.369,5.354,2.77,2.813,4.186,6.614,4.186,11.471v.137c0,7.535-3.844,12.534-9.712,15.136L601.025,223.4h-15.1l-9.5-14.923h-5.732V223.4H557.6Z" transform="translate(-381.296 -119.067)" fill="#004e92" fill-rule="evenodd"/>
  <path id="Path_9" data-name="Path 9" d="M721.043,186.085H706.888V174.117h41.4v11.968H734.131v37.309H721.043Z" transform="translate(-483.382 -119.064)" fill="#004e92" fill-rule="evenodd"/>
  <rect id="Rectangle_75" data-name="Rectangle 75" width="13.147" height="49.275" transform="translate(272.251 55.054)" fill="#004e92"/>
  <path id="Path_10" data-name="Path 10" d="M922.9,214.25l7.284-9.082a23.684,23.684,0,0,0,15.3,5.918c3.5,0,5.394-1.268,5.394-3.384v-.14c0-2.038-1.546-3.168-7.953-4.714-10.042-2.392-17.8-5.352-17.8-15.491v-.137c0-9.153,6.943-15.771,18.279-15.771,8.023,0,14.291,2.252,19.421,6.548l-6.55,9.647a22.984,22.984,0,0,0-13.208-4.862c-3.172,0-4.723,1.407-4.723,3.166v.145c0,2.247,1.622,3.236,8.153,4.785,10.863,2.461,17.6,6.127,17.6,15.351v.138c0,10.066-7.617,16.048-19.075,16.048-8.359,0-16.325-2.742-22.119-8.164" transform="translate(-631.097 -117.239)" fill="#004e92" fill-rule="evenodd"/>
  <path id="Path_11" data-name="Path 11" d="M2.309,378.593V367.268H7.756v11.211c0,2.913,1.406,4.3,3.566,4.3s3.553-1.326,3.553-4.156V367.268h5.447v11.195c0,6.508-3.566,9.364-9.052,9.364s-8.961-2.912-8.961-9.233" transform="translate(-1.579 -251.144)" fill="#004e92" fill-rule="evenodd"/>
  <path id="Path_12" data-name="Path 12" d="M71.063,367.268h5l7.955,10.665V367.268h5.307v20.184H84.628l-8.265-11.068v11.068h-5.3Z" transform="translate(-48.594 -251.144)" fill="#004e92" fill-rule="evenodd"/>
  <rect id="Rectangle_76" data-name="Rectangle 76" width="5.384" height="20.184" transform="translate(44.804 116.124)" fill="#004e92"/>
  <path id="Path_13" data-name="Path 13" d="M166.764,367.268h5.993l4.4,12.77,4.382-12.77h5.892L179.581,387.6h-4.975Z" transform="translate(-114.036 -251.144)" fill="#004e92" fill-rule="evenodd"/>
  <path id="Path_14" data-name="Path 14" d="M239.775,367.268h15.546v4.75H245.079v3.053h9.28v4.42h-9.28v3.2h10.384v4.764H239.776V367.268Z" transform="translate(-163.962 -251.144)" fill="#004e92" fill-rule="evenodd"/>
  <path id="Path_15" data-name="Path 15" d="M308.659,376.951c1.827,0,2.874-.927,2.874-2.395V374.5c0-1.576-1.105-2.381-2.9-2.381h-3.509v4.837Zm-8.9-9.683h9.147c2.954,0,5,.8,6.295,2.193a6.383,6.383,0,0,1,1.714,4.69v.057a6.369,6.369,0,0,1-3.976,6.2l4.612,7.044h-6.187l-3.894-6.117h-2.348v6.117h-5.362Z" transform="translate(-204.982 -251.144)" fill="#004e92" fill-rule="evenodd"/>
  <path id="Path_16" data-name="Path 16" d="M359.692,383.7l2.978-3.722a9.723,9.723,0,0,0,6.271,2.422c1.437,0,2.21-.519,2.21-1.383v-.061c0-.832-.633-1.3-3.259-1.932-4.114-.98-7.291-2.183-7.291-6.336v-.069c0-3.736,2.852-6.451,7.49-6.451a11.883,11.883,0,0,1,7.95,2.671l-2.675,3.966a9.427,9.427,0,0,0-5.42-2c-1.3,0-1.934.576-1.934,1.309v.059c0,.924.662,1.324,3.346,1.959,4.446,1,7.205,2.5,7.205,6.281v.071c0,4.115-3.119,6.563-7.822,6.563a13.138,13.138,0,0,1-9.051-3.341" transform="translate(-245.964 -250.392)" fill="#004e92" fill-rule="evenodd"/>
  <rect id="Rectangle_77" data-name="Rectangle 77" width="5.387" height="20.184" transform="translate(133.854 116.124)" fill="#004e92"/>
  <path id="Path_17" data-name="Path 17" d="M455.713,372.167h-5.8v-4.9h16.954v4.9h-5.8v15.286h-5.357Z" transform="translate(-307.657 -251.144)" fill="#004e92" fill-rule="evenodd"/>
  <path id="Path_18" data-name="Path 18" d="M514.452,379.9l-7.35-12.63h6.1l3.976,7.347,4-7.347h6l-7.348,12.539v7.645h-5.382Z" transform="translate(-346.765 -251.144)" fill="#004e92" fill-rule="evenodd"/>
  <path id="Path_19" data-name="Path 19" d="M608.721,379.211h4.059c1.68,0,2.6.633,2.6,1.794v.053c0,1.163-.923,1.822-2.542,1.822h-4.119Zm5.867-5.7c0,1.133-.872,1.729-2.527,1.729h-3.34v-3.5h3.454c1.555,0,2.413.612,2.413,1.711Zm2.392,3.331a4.643,4.643,0,0,0,2.948-4.484v-.065a4.583,4.583,0,0,0-1.248-3.284c-1.171-1.22-2.9-1.811-5.292-1.811H603.45v20.225h9.989c4.592,0,7.347-2.094,7.347-5.588v-.057a4.72,4.72,0,0,0-1.051-3.2A6.167,6.167,0,0,0,616.979,376.843Z" transform="translate(-412.649 -251.098)" fill="#e50019" fill-rule="evenodd"/>
  <path id="Path_20" data-name="Path 20" d="M675.663,379.085h-4.281l2.148-5.661Zm.515-12.379h-5.2l-8.235,20.353,0,.03,5.673,0,1.377-3.6h7.431l1.4,3.591.015.014h5.783l-8.234-20.368v-.013Z" transform="translate(-453.189 -250.76)" fill="#e50019" fill-rule="evenodd"/>
  <path id="Path_21" data-name="Path 21" d="M744.223,372.091h3.485c1.863,0,2.884.838,2.884,2.358v.061c0,1.483-1.072,2.371-2.856,2.371h-3.514Zm11.8,2.072v-.056a6.455,6.455,0,0,0-1.72-4.7c-1.363-1.462-3.493-2.2-6.314-2.2h-9.16v20.225h5.394V381.31h2.314l3.9,6.1.005.01h6.225l-4.615-7.047A6.379,6.379,0,0,0,756.021,374.162Z" transform="translate(-505.223 -251.098)" fill="#e50019" fill-rule="evenodd"/>
  <path id="Path_22" data-name="Path 22" d="M808.7,379.468H818v-4.46H808.7v-3.017H818.95V367.2H803.367v20.225H819.1v-4.8H808.7Z" transform="translate(-549.356 -251.098)" fill="#e50019" fill-rule="evenodd"/>
  <rect id="Rectangle_78" data-name="Rectangle 78" width="5.425" height="20.225" transform="translate(273.09 116.102)" fill="#e50019"/>
  <path id="Path_23" data-name="Path 23" d="M899.059,367.2h-5.394v20.225h14.759V382.48h-9.365Z" transform="translate(-611.103 -251.098)" fill="#e50019" fill-rule="evenodd"/>
  <path id="Path_24" data-name="Path 24" d="M954.591,367.2h-5.4v20.225H963.96V382.48h-9.369Z" transform="translate(-649.074 -251.098)" fill="#e50019" fill-rule="evenodd"/>
  <path id="Path_25" data-name="Path 25" d="M1001.875,367.2l-3.991,7.326-3.967-7.317,0-.009h-6.154l7.366,12.662v7.563h5.433v-7.661l7.336-12.53.028-.034Z" transform="translate(-675.448 -251.098)" fill="#e50019" fill-rule="evenodd"/>
  <path id="Path_26" data-name="Path 26" d="M836.778,0V1.72l-1.231.028-1.211.09-1.2.15-1.173.207-1.155.259-1.132.313-1.107.37-1.085.416-1.054.468-1.028.517-1,.562-.965.605-.934.65-.9.694-.863.732-.831.773-.789.81-.748.846-.707.879L817,12l-.619.947-.575.975-.526,1-.477,1.03-.427,1.057L814,18.1l-.32,1.107-.265,1.126-.21,1.146-.15,1.165-.093,1.184-.029,1.2h-1.719l.037-1.287.1-1.27.164-1.253.224-1.234.286-1.212.347-1.188.4-1.163.459-1.138.513-1.11.565-1.079.616-1.049.665-1.014.714-.98.759-.947.8-.907.848-.87L819.6,6.5l.931-.786.962-.741,1-.7,1.04-.652,1.067-.6,1.1-.55,1.135-.5L828,1.517l1.189-.39L830.4.788l1.236-.28,1.259-.219,1.277-.157,1.3-.1ZM811.213,25.026h1.719l.029,1.2.093,1.183.15,1.165.21,1.146.265,1.125.32,1.106.375,1.082.427,1.057.477,1.03.526,1,.575.975.619.947.665.914.707.879.748.846.789.809.831.773L821.6,43l.9.694.934.65.965.605,1,.562,1.028.517,1.054.468,1.085.416,1.107.37,1.132.311,1.155.26,1.173.206,1.2.15,1.211.09,1.231.028v1.72l-1.312-.035-1.3-.1-1.277-.157-1.259-.219-1.236-.28-1.211-.34L828,48.533l-1.159-.45-1.135-.5-1.1-.55-1.067-.6-1.04-.653-1-.7-.962-.741-.931-.786-.884-.827-.848-.869-.8-.906L816.3,40l-.714-.981-.665-1.013-.616-1.049-.565-1.079-.513-1.11-.459-1.138-.4-1.164-.347-1.188-.286-1.212-.224-1.233-.164-1.253-.1-1.27ZM836.778,50.05V48.33l1.23-.028,1.211-.09,1.2-.15,1.172-.206,1.155-.26,1.132-.311,1.107-.37,1.085-.416,1.055-.468,1.028-.517,1-.562.966-.605.934-.65.9-.694.863-.733.83-.773.789-.809.75-.846.707-.879.664-.914.621-.947.574-.975.526-1,.479-1.03.426-1.057.375-1.082.32-1.106.265-1.125.211-1.146.149-1.165.093-1.183.029-1.2h1.717l-.035,1.287-.1,1.27-.164,1.253-.223,1.233-.286,1.212-.348,1.188-.4,1.164-.459,1.138-.512,1.11-.566,1.079-.614,1.049-.666,1.013-.712.981-.76.947-.8.906-.848.869-.885.827-.93.786-.963.741-1,.7-1.038.653-1.069.6-1.1.55-1.134.5-1.158.45-1.189.39-1.212.34-1.235.28-1.261.219-1.277.157-1.3.1Zm25.564-25.025h-1.717l-.029-1.2-.093-1.184-.149-1.165-.211-1.146-.265-1.126-.32-1.107-.375-1.082-.426-1.057-.479-1.03-.526-1-.574-.975L856.557,12l-.664-.914-.707-.879-.75-.846-.789-.81-.83-.773-.863-.732-.9-.694-.934-.65L849.15,5.1l-1-.562-1.028-.517-1.055-.468-1.085-.416-1.107-.37-1.132-.313-1.155-.259-1.172-.207-1.2-.15-1.211-.09-1.23-.028V0l1.311.035,1.3.1,1.277.157,1.261.219,1.235.28,1.212.339,1.189.39,1.158.45,1.134.5,1.1.55,1.069.6,1.038.652,1,.7.963.741.93.786.885.827.848.87.8.907.76.947.712.98.666,1.014.614,1.049.566,1.079.512,1.11.459,1.138.4,1.163.348,1.188.286,1.212.223,1.234.164,1.253.1,1.27Z" transform="translate(-554.721)" fill="#fff"/>
  <path id="Path_27" data-name="Path 27" d="M838.636,2.722c13.642,0,24.7,10.82,24.7,24.165s-11.062,24.165-24.7,24.165S813.93,40.23,813.93,26.887,824.993,2.722,838.636,2.722" transform="translate(-556.579 -1.861)" fill="#fff" fill-rule="evenodd"/>
  <path id="Path_28" data-name="Path 28" d="M857.185,2.559l.268-.024h.028l0,0,.441-.028.034,0,.033,0,.033,0h.034l.068,0,.033,0h.033l.034,0h.034q.8-.038,1.62-.02h.029l.027,0h.143l.029,0,.085,0h.114l.029,0h.028l.029,0h.087l.029,0h.06l.028,0h.029l.03,0h.088l.029,0,.029,0,.03,0,.118.008h.029l.031,0h.03l.031,0h.029l.03,0,.029,0,.031,0,.049,0,.049,0,.1.008.048.005.2.018.049,0,.048.006.05,0,.032,0,.016,0,.05.006.047,0,.052.006.047.005.051.005.048.007.047,0,.051.006.048.005.048.006.048.009.05,0h.016l.033.006.048.006.048.008.049.005.05.008.1.014.048.006.1.014.048.008.048.007.048.006v0l.051.008.048.006.048.008.05.008.146.026.049.005.048.008.049.011.049.008.05.009h.02l.028.007.05.009.049.009.684.138.029.007.028.007q.8.2,1.6.413a24.7,24.7,0,0,1,2.888,1.035l.112.05.418.187.027.011.11.053.109.05.11.052.053.026.056.027a24.951,24.951,0,0,1,3.107,1.816,34.907,34.907,0,0,1-15.941-4.18M844.269,7.732a24.557,24.557,0,0,1,4.651-2.908,31.386,31.386,0,0,0,4.517,3.234c-2.863-.244-5.494-.338-7.849-.338Zm37.286,9.086a45.859,45.859,0,0,0-6.695-3.569,41.584,41.584,0,0,0,4.366-.509c.3.418.58.846.853,1.282l.038.064A25.484,25.484,0,0,1,881.555,16.818Z" transform="translate(-577.325 -1.681)" fill="#ce001b"/>
  <path id="Path_29" data-name="Path 29" d="M864.418,4.235l.224.048.029.007.027.006h0c.44.108.882.224,1.323.353q-.8-.215-1.6-.413M844.1,8.989l.026-.021h0l.025-.02,1.319-.011c2.355,0,4.986.094,7.849.338,0,.019.045.033.045.05-2.861-.253-5.539-.345-7.894-.345Zm37.35,9.025a52.111,52.111,0,0,0-6.752-3.55h.046a45.866,45.866,0,0,1,6.694,3.569l.022,0Z" transform="translate(-577.213 -2.896)" fill="#ce001b"/>
  <path id="Path_30" data-name="Path 30" d="M892.385,25.541a37.044,37.044,0,0,1-18.979-5.213,68.925,68.925,0,0,1,21.333,5.14c-.786.051-1.572.072-2.355.072" transform="translate(-597.25 -13.901)" fill="#003f7d"/>
  <path id="Path_31" data-name="Path 31" d="M884.919,13.467A68.716,68.716,0,0,0,863.5,8.277a31.408,31.408,0,0,1-4.517-3.234q1.021-.487,2.092-.882l.041-.015.083-.03.378-.134.1-.032.032-.01.126-.042.256-.083.127-.041.023-.007.105-.031.128-.037.256-.077L862.8,3.6l.048-.013,0,0,.385-.1.129-.034.008,0,.123-.032.131-.032.261-.064.066-.016.064-.014.521-.112.005,0,.585-.112.079-.015c.668-.117,1.347-.2,2.03-.267a34.908,34.908,0,0,0,15.941,4.18,24.631,24.631,0,0,1,6.1,6,41.584,41.584,0,0,1-4.366.509" transform="translate(-587.384 -1.9)" fill="#0d0a14"/>
  <path id="Path_32" data-name="Path 32" d="M894.642,25.361a68.923,68.923,0,0,0-21.333-5.14c0-.016-.045-.03-.045-.05a68.718,68.718,0,0,1,21.424,5.19h-.046" transform="translate(-597.153 -13.793)" fill="#0d0a14"/>
  <path id="Path_33" data-name="Path 33" d="M870.759,39.153c-.74-.582-1.8-1.3-3.047-2.1a33.028,33.028,0,0,1,3.047,2.1m-.06-6.687c.206.595.39,1.2.55,1.815l.007.028.048.2.023.1.024.1a25.221,25.221,0,0,1,.606,4.179c-.276.076-.693.162-1.153.255a51.84,51.84,0,0,0-9.511-5.6A46.1,46.1,0,0,0,870.7,32.466Zm-43.57-5.22a24.563,24.563,0,0,1,4.254-5.006,42.684,42.684,0,0,0,8.209,5.77q-2.492-.192-5.124-.2c-2.033,0-4.156.1-6.278.3C827.822,27.828,827.5,27.539,827.13,27.245Zm33.194,12.836A50.806,50.806,0,0,1,837.56,34.36,55.877,55.877,0,0,1,860.324,40.081Z" transform="translate(-565.606 -15.207)" fill="#003f7d"/>
  <path id="Path_34" data-name="Path 34" d="M854.825,46.126a44.371,44.371,0,0,1-21.239-5.48,62.9,62.9,0,0,1,21.47,5.48h-.231m-34.814,1.3q-.9-.682-1.8-1.415a24.548,24.548,0,0,1,2.218-5.134c.553-.064,1.107-.115,1.663-.163A53.525,53.525,0,0,0,831.37,46.9c-.97-.043-1.894-.061-2.815-.061A62.487,62.487,0,0,0,820.011,47.426Zm43.4,11.247a47.6,47.6,0,0,0-9.142-6c.278,0,.508.005.74.005a47.9,47.9,0,0,0,9.649-.937c.553.4.97.729,1.245.974,0,.566,0,1.134-.026,1.7l0,.034v.03l0,.032,0,.032v.032l0,.032v.031l0,.032V54.7l0,.031,0,.058,0,.058-.02.228-.005.057-.006.056,0,.058-.005.056-.005.055v0l-.006.057-.006.056-.006.057-.006.055-.006.058-.007.055-.006.058-.007.057-.009.056-.006.057-.014.113-.008.056-.008.055-.009.057-.008.056-.007.057-.008.057a19.14,19.14,0,0,1-.372,1.933C864.89,58.411,864.244,58.54,863.412,58.673Z" transform="translate(-559.506 -27.794)" fill="#ce001b"/>
  <path id="Path_35" data-name="Path 35" d="M863.4,52.236c-.232,0-.462-.005-.74-.005a55.976,55.976,0,0,0-22.9-5.769,53.531,53.531,0,0,1-9.279-6.189c2.168-.183,4.246-.271,6.279-.271,1.8,0,3.554.068,5.217.2a44.369,44.369,0,0,0,21.239,5.48h.231q.761.353,1.523.716a50.406,50.406,0,0,1,5.034,2.8c1.245.8,2.307,1.515,3.047,2.1a47.9,47.9,0,0,1-9.65.937" transform="translate(-567.898 -27.354)" fill="#0d0a14"/>
  <path id="Path_36" data-name="Path 36" d="M943.794,76.675a15.471,15.471,0,0,0-1.245-.974c.046-.006.046-.009.046-.014.508.374.924.688,1.2.923v.064m-2.539,5.97a47.276,47.276,0,0,0-9.142-6.015l.046,0a47.592,47.592,0,0,1,9.142,6C941.3,82.641,941.3,82.641,941.255,82.646Z" transform="translate(-637.395 -51.757)" fill="#ce001b"/>
  <path id="Path_37" data-name="Path 37" d="M944.348,63.591a33.009,33.009,0,0,0-3.047-2.1,50.431,50.431,0,0,0-5.034-2.8q-.761-.361-1.523-.716h.139a51.834,51.834,0,0,1,9.511,5.6c0,.005,0,.008-.046.014" transform="translate(-639.194 -39.646)" fill="#0d0a14"/>
  <path id="Path_38" data-name="Path 38" d="M823.954,60.845c0-.01-.047-.017-.047-.021a62.493,62.493,0,0,1,8.543-.585c.921,0,1.845.018,2.815.061.046.018.046.031.091.045-1.015-.045-1.985-.064-2.906-.064a62.652,62.652,0,0,0-8.5.564" transform="translate(-563.401 -41.193)" fill="#ce001b"/>
  <path id="Path_39" data-name="Path 39" d="M882.731,66.2l-.046,0a55.878,55.878,0,0,0-22.764-5.722c-.045-.013-.045-.027-.091-.045a55.976,55.976,0,0,1,22.9,5.769" transform="translate(-587.966 -41.324)" fill="#0d0a14"/>
  <path id="Path_40" data-name="Path 40" d="M825.224,40.768V40.76c.553-.067,1.107-.121,1.663-.171v.017c-.556.048-1.109.1-1.663.163m34.629,5.249a62.9,62.9,0,0,0-21.47-5.48c-.046-.021-.046-.037-.093-.05a63.03,63.03,0,0,1,21.7,5.53Z" transform="translate(-564.302 -27.686)" fill="#ce001b"/>
  <path id="Path_41" data-name="Path 41" d="M830.483,40.183v-.017c2.122-.194,4.246-.3,6.279-.3q2.631,0,5.124.2c.047.013.047.029.093.048-1.663-.134-3.418-.2-5.217-.2-2.032,0-4.111.088-6.279.271" transform="translate(-567.898 -27.264)" fill="#0d0a14"/>
  <path id="Path_42" data-name="Path 42" d="M887.151,98.982c-.072.241-.15.485-.23.726l-.019.053-.013.035-.032.09-.032.089-.032.091a25.215,25.215,0,0,1-2.084,4.382c-.416.049-.879.1-1.339.133a47.35,47.35,0,0,0-9.327-6.33c1.154.066,2.216.1,3.233.1a51.466,51.466,0,0,0,8.356-.654q.76.62,1.518,1.288m-14.723,5.688A65.292,65.292,0,0,1,850.772,99.2,44.486,44.486,0,0,1,872.428,104.67Z" transform="translate(-581.772 -66.805)" fill="#003f7d"/>
  <path id="Path_43" data-name="Path 43" d="M962.65,98.154c-.508-.44-.97-.861-1.478-1.271.832-.134,1.478-.263,1.894-.36-.14.55-.277,1.095-.416,1.632" transform="translate(-657.266 -66.003)" fill="#0d0a14"/>
  <path id="Path_44" data-name="Path 44" d="M962.545,98.96q-.76-.669-1.519-1.288c.046,0,.046,0,.046-.01.508.411.97.831,1.478,1.271v.006Z" transform="translate(-657.166 -66.783)" fill="#0d0a14"/>
  <path id="Path_45" data-name="Path 45" d="M816.149,69.226c-.462-.336-.875-.623-1.155-.839,0-.8,0-1.62.042-2.437V65.91l0-.039,0-.041,0-.053.007-.052.008-.106.006-.052.005-.053,0-.052.006-.053.006-.051a27.415,27.415,0,0,1,.462-2.837c.091-.018.185-.038.277-.055.555-.092,1.2-.2,2.032-.309a59.718,59.718,0,0,0,9.926,6.106c-.509-.013-1.017-.022-1.525-.022a52.809,52.809,0,0,0-10.112.986" transform="translate(-557.307 -42.503)" fill="#003f7d"/>
  <path id="Path_46" data-name="Path 46" d="M816.753,59.408c.139-.609.277-1.209.461-1.794q.9.733,1.8,1.415c-.97.14-1.708.274-2.262.379m0,.005c.091-.018.185-.038.277-.055C816.938,59.375,816.844,59.4,816.753,59.413Z" transform="translate(-558.51 -39.397)" fill="#0d0a14"/>
  <path id="Path_47" data-name="Path 47" d="M816.753,62.474v-.005c.554-.105,1.292-.238,2.262-.379,0,0,.047.01.047.021-.831.1-1.478.217-2.032.309-.091.016-.185.036-.277.055" transform="translate(-558.51 -42.458)" fill="#0d0a14"/>
  <path id="Path_48" data-name="Path 48" d="M819.526,103.381v-.009a49.728,49.728,0,0,1,9.7-.946h.139s0,.01.045.013h-.184a49.705,49.705,0,0,0-9.7.943m39.107,9.985a42.728,42.728,0,0,0-7.572-5.46v.005A40.824,40.824,0,0,1,858.633,113.365Z" transform="translate(-560.406 -70.04)" fill="#ce001b"/>
  <path id="Path_49" data-name="Path 49" d="M872.329,107.91v-.005a44.487,44.487,0,0,0-21.656-5.467c-.046,0-.046-.009-.046-.013h.278a44.352,44.352,0,0,1,21.423,5.485" transform="translate(-581.674 -70.04)" fill="#0d0a14"/>
  <path id="Path_50" data-name="Path 50" d="M849.6,87.254a57.189,57.189,0,0,1-21.607-5.636A50.132,50.132,0,0,1,849.6,87.254m-34.375-3.786-.063-.7,1.149-.213A58.87,58.87,0,0,0,826.376,88.2h-.138a50.372,50.372,0,0,0-9.7.922,24.184,24.184,0,0,1-1.266-5.218l-.013-.1-.013-.1-.011-.1-.011-.1Zm40.465,15.647a40.83,40.83,0,0,0-7.567-5.428c1.615.114,3.23.184,4.893.184,1.939,0,3.925-.091,6-.275.322.293.6.544.784.747a24.18,24.18,0,0,1-1.706,2.3l-.065.075-.063.076-.065.076-.065.073-.063.074-.263.3-.051.054-.016.018A24.135,24.135,0,0,1,855.691,99.115Z" transform="translate(-557.422 -55.812)" fill="#ce001b"/>
  <path id="Path_51" data-name="Path 51" d="M855.5,93.809c-1.663,0-3.278-.07-4.893-.184a44.331,44.331,0,0,0-21.47-5.49h-.278A58.871,58.871,0,0,1,818.8,82.495a54.3,54.3,0,0,1,10.065-.967c.554,0,1.109.009,1.617.028a57.189,57.189,0,0,0,21.607,5.636c.649.327,1.246.656,1.8.983a46.4,46.4,0,0,1,7.618,5.357c-2.078.184-4.063.275-6,.275" transform="translate(-559.907 -55.75)" fill="#0d0a14"/>
  <path id="Path_52" data-name="Path 52" d="M849.693,87.155a.711.711,0,0,1-.093,0,50.132,50.132,0,0,0-21.607-5.636c-.046-.013-.046-.034-.093-.048a50.111,50.111,0,0,1,21.792,5.688M816.543,89.04v-.024a50.374,50.374,0,0,1,9.7-.922A49.727,49.727,0,0,0,816.543,89.04Zm-1.38-6.374v-.013c.368-.079.733-.151,1.1-.222,0,.012,0,.015.047.021ZM859.846,94.2l-.011.016c-.013.006-.029.011-.029.021-.184-.2-.462-.453-.784-.747v-.007C859.34,93.768,859.618,94.008,859.846,94.2Zm-4.2,4.833a40.818,40.818,0,0,0-7.572-5.455s.047,0,.047,0a40.83,40.83,0,0,1,7.567,5.428l-.015.013Z" transform="translate(-557.422 -55.709)" fill="#ce001b"/>
  <path id="Path_53" data-name="Path 53" d="M818.694,82.406c-.047-.006-.047-.009-.047-.021a52.809,52.809,0,0,1,10.112-.987c.507,0,1.016.009,1.525.022.047.014.047.034.093.048-.508-.02-1.064-.028-1.617-.028a54.3,54.3,0,0,0-10.065.967M861.4,93.445a46.4,46.4,0,0,0-7.618-5.357c-.556-.328-1.153-.656-1.8-.983a.711.711,0,0,0,.093,0,47.351,47.351,0,0,1,9.327,6.33Zm-10.9.091s-.047,0-.047,0a44.352,44.352,0,0,0-21.423-5.485A44.331,44.331,0,0,1,850.507,93.536Z" transform="translate(-559.805 -55.661)" fill="#0d0a14"/>
  <path id="Path_54" data-name="Path 54" d="M852.486,121.729c-.877-.618-1.755-1.178-2.677-1.7.923.522,1.8,1.086,2.677,1.7m-30.6-10.37-.272-.587a68.592,68.592,0,0,0,7.837,3.985,36.935,36.935,0,0,0-5.217.518,26.356,26.356,0,0,1-2.239-3.7l-.037-.073-.037-.074-.013-.026Zm2.374,3.953,0,0a38.977,38.977,0,0,1,5.286-.513c.045.005.045.009.045.014a37.624,37.624,0,0,0-5.308.508Zm34.094,5.16-.417.3-.01.008a24.63,24.63,0,0,1-3.735,2.165,42.171,42.171,0,0,0-4.334-2.913,75.56,75.56,0,0,0,8.079.439Zm-14.988,4.759h-.083l-.029,0-.029,0h-.084l-.086,0-.028,0-.114,0-.031,0h-.057l-.029,0h-.059l-.028,0h-.03l-.027,0-.031,0h-.028l-.029,0h-.03l-.029,0-.058,0-.031,0-.117-.008-.03,0h-.03l-.031,0-.029,0-.03,0h-.031l-.029,0-.03,0-.6-.053-.024,0-.572-.062-.048-.007-.543-.075-.071-.01a24.282,24.282,0,0,1-3.547-.813l-.023-.008q-.866-.268-1.7-.6l-.089-.034-.464-.192-.066-.027q-1.053-.451-2.053-.993l-.019-.011c-.6-.328-1.183-.682-1.751-1.058l.491,0a29.52,29.52,0,0,1,14.865,3.938l-.086.007-.032,0-.454.03h-.031l-.03,0h-.037l-.024,0-.03,0h-.031l-.029,0C844.494,125.234,843.928,125.245,843.362,125.231Z" transform="translate(-561.831 -75.748)" fill="#003f7d"/>
  <path id="Path_55" data-name="Path 55" d="M867.055,128.721A71.763,71.763,0,0,1,846.83,123.5c.324-.009.693-.018,1.017-.018a37.62,37.62,0,0,1,19.208,5.239" transform="translate(-579.077 -84.439)" fill="#ce001b"/>
  <path id="Path_56" data-name="Path 56" d="M851.695,133.88a29.452,29.452,0,0,0-14.959-3.972l-.552.006h0l-.115-.073-.086-.058-.023-.017-.112-.077-.112-.077-.221-.153-.015-.012a24.551,24.551,0,0,1-3.924-3.5l-.037-.041-.086-.1-.089-.1-.087-.1,0,0c-.433-.5-.845-1.019-1.233-1.559a37.522,37.522,0,0,1,5.308-.508,71.763,71.763,0,0,0,20.225,5.221c.923.522,1.8,1.082,2.677,1.7.552.386,1.151.792,1.7,1.219a23.965,23.965,0,0,1-3.084,1.2h-.009q-.568.176-1.148.325l-.006,0-.261.064-.131.031-.131.031-.053.013-.079.017-.132.03-.132.028-.132.028-.112.023-.021,0-.132.027-.134.025-.133.025-.133.025-.038.008-.094.016-.135.021-.134.021-.134.022-.136.022-.134.019-.135.021-.135.017h0l-.25.036h-.015l-.136.016-.134.016h-.008l-.4.04-.136.015Z" transform="translate(-567.596 -84.477)" fill="#0d0a14"/>
  <path id="Path_57" data-name="Path 57" d="M864.884,147.666a29.519,29.519,0,0,0-14.865-3.938l-.491,0-.061-.04.552-.006a29.453,29.453,0,0,1,14.96,3.972Z" transform="translate(-580.881 -98.255)" fill="#004e92"/>
  <path id="Path_58" data-name="Path 58" d="M866.8,128.616s0,0-.046,0a37.744,37.744,0,0,0-19.208-5.249c-.37,0-.693,0-1.062.014,0-.01-.047-.024-.092-.038.416-.007.784-.016,1.154-.016a37.812,37.812,0,0,1,19.253,5.294" transform="translate(-578.781 -84.33)" fill="#ce001b"/>
  <path id="Path_59" data-name="Path 59" d="M829.9,123.893h0a36.93,36.93,0,0,1,5.217-.518c.046.014.092.028.092.038a38.977,38.977,0,0,0-5.286.513Z" transform="translate(-567.497 -84.365)" fill="#0d0a14"/>
  <path id="Path_60" data-name="Path 60" d="M915.175,142.969c-.551-.427-1.15-.833-1.7-1.219-.877-.613-1.755-1.178-2.677-1.7.046,0,.046,0,.046,0a42.162,42.162,0,0,1,4.334,2.913Z" transform="translate(-622.818 -95.769)" fill="#004e92"/>
</svg>
